<svg width="20" height="20" viewBox="0 0 20 20" fill="none" xmlns="http://www.w3.org/2000/svg">
  <path d="M5 7V2C5 1.44772 5.44772 1 6 1H14C14.5523 1 15 1.44772 15 2V7" stroke="currentColor" stroke-width="1.5" stroke-linecap="round" stroke-linejoin="round"/>
  <path d="M5 14H3C2.44772 14 2 13.5523 2 13V9C2 8.44772 2.44772 8 3 8H17C17.5523 8 18 8.44772 18 9V13C18 13.5523 17.5523 14 17 14H15" stroke="currentColor" stroke-width="1.5" stroke-linecap="round" stroke-linejoin="round"/>
  <path d="M5 12H15V18C15 18.5523 14.5523 19 14 19H6C5.44772 19 5 18.5523 5 18V12Z" stroke="currentColor" stroke-width="1.5" stroke-linecap="round" stroke-linejoin="round"/>
</svg>